<svg width="124" height="122" viewBox="0 0 124 122" fill="none" xmlns="http://www.w3.org/2000/svg">
<ellipse cx="62" cy="61" rx="62" ry="61" fill="#E5E5FF" fill-opacity="0.5"/>
<path d="M65.2054 61.9488C73.3501 61.9488 79.4361 53.4341 79.4361 45.8206C79.4361 37.9738 73.0522 31.5898 65.2054 31.5898C57.3585 31.5898 50.9746 37.9738 50.9746 45.8206C50.9746 53.4341 57.0606 61.9488 65.2054 61.9488Z" fill="#191970"/>
<path d="M87.0252 67.6411C80.7381 67.6411 75.6406 72.7386 75.6406 79.0257C75.6406 85.3129 80.7381 90.4103 87.0252 90.4103C93.3124 90.4103 98.4099 85.3129 98.4099 79.0257C98.4099 72.7386 93.3124 67.6411 87.0252 67.6411ZM91.7688 79.9744H87.974V83.7693C87.974 84.293 87.5489 84.718 87.0252 84.718C86.5015 84.718 86.0765 84.293 86.0765 83.7693V79.9744H82.2817C81.758 79.9744 81.3329 79.5494 81.3329 79.0257C81.3329 78.502 81.758 78.077 82.2817 78.077H86.0765V74.2821C86.0765 73.7584 86.5015 73.3334 87.0252 73.3334C87.5489 73.3334 87.974 73.7584 87.974 74.2821V78.077H91.7688C92.2925 78.077 92.7175 78.502 92.7175 79.0257C92.7175 79.5494 92.2925 79.9744 91.7688 79.9744Z" fill="#191970"/>
<path d="M73.7437 79.0257C73.7437 74.9813 75.5576 71.3658 78.4085 68.9295C74.8271 68.1733 70.4469 67.6411 65.2052 67.6411C54.6574 67.6411 47.5904 69.7938 43.5194 71.6001C41.1315 72.6579 39.5898 75.0392 39.5898 77.6662L39.5898 87.5642C39.5898 88.0879 40.0149 88.5129 40.5386 88.5129L77.7387 88.5129C75.2759 86.1022 73.7437 82.7447 73.7437 79.0257Z" fill="#191970"/>
</svg>
