<?xml version="1.0" encoding="UTF-8"?>
<!DOCTYPE svg PUBLIC "-//W3C//DTD SVG 1.1//EN" "http://www.w3.org/Graphics/SVG/1.1/DTD/svg11.dtd">
<!-- Creator: CorelDRAW 2019 (64-Bit) -->
<svg xmlns="http://www.w3.org/2000/svg" xml:space="preserve" width="0.54in" height="0.133331in" version="1.1" style="shape-rendering:geometricPrecision; text-rendering:geometricPrecision; image-rendering:optimizeQuality; fill-rule:evenodd; clip-rule:evenodd"
viewBox="0 0 540 133.33"
 xmlns:xlink="http://www.w3.org/1999/xlink">
 <defs>
  <style type="text/css">
   <![CDATA[
    .fil0 {fill:#E6EFFF}
   ]]>
  </style>
 </defs>
 <g id="Layer_x0020_1">
  <metadata id="CorelCorpID_0Corel-Layer"/>
  <g id="_1759520771888">
   <path class="fil0" d="M51.28 70.99l-12.15 44.03c-0.02,0.07 -0.02,0.15 -0.01,0.22 0.01,0.07 0.04,0.14 0.08,0.2 0.04,0.06 0.1,0.11 0.17,0.15 0.06,0.04 0.14,0.06 0.21,0.07 3.28,0.3 19.22,1.65 30.54,0.31 12.41,-1.46 13.05,-21.59 15.59,-26.67 0.04,-0.09 0.12,-0.17 0.21,-0.22 0.09,-0.05 0.2,-0.07 0.3,-0.06 2.08,0.22 13.46,1.32 23.89,-0.04 11.54,-1.5 20.76,-6.37 25.37,-10.87 4.61,-4.5 8.85,-8.24 11.54,-20.24 2.69,-11.99 0.77,-23.24 -7.69,-32.23 -8.46,-8.99 -17.3,-7.12 -26.91,-8.24 -4.79,-0.56 -16.84,-0.66 -27.72,-0.61 -5.89,0.02 -11.59,1.98 -16.19,5.56 -4.6,3.58 -7.82,8.57 -9.15,14.16l-0.98 3.42c-0.2,0.69 -0.23,1.41 -0.09,2.11 0.14,0.7 0.44,1.36 0.89,1.93 0.45,0.57 1.03,1.02 1.69,1.33 0.66,0.31 1.39,0.46 2.12,0.45 13.92,-0.29 46.07,-0.91 47.88,-0.62 0,0 3.07,-0.37 2.69,3 0,0 -1.15,8.62 -2.69,8.62 -1.32,0 -41.08,0.83 -52.15,1.07 -0.82,0.02 -1.62,0.29 -2.28,0.78 -0.65,0.48 -1.13,1.16 -1.37,1.93 -0.04,0.13 -0.05,0.26 -0.03,0.39 0.03,0.13 0.08,0.25 0.16,0.36 0.08,0.11 0.19,0.19 0.31,0.25 0.12,0.06 0.26,0.09 0.39,0.09 7.39,-0.06 47.25,-0.37 50.76,-0.37 3.84,0 3.07,1.87 3.07,2.62 0,0.65 -41.7,0.46 -53.22,0.39 -0.85,-0.01 -1.68,0.25 -2.37,0.73 -0.69,0.48 -1.21,1.17 -1.48,1.95 -0.03,0.08 -0.04,0.16 -0.02,0.24 0.02,0.08 0.05,0.15 0.09,0.22 0.05,0.06 0.11,0.11 0.19,0.15 0.07,0.04 0.15,0.05 0.24,0.05 6.38,-0.09 52.91,-0.71 55.41,-0.37 1.15,0.37 0,3 -4.61,3 -4.18,0 -43.67,-0.31 -51.09,-0.37 -0.36,0 -0.7,0.11 -0.99,0.31 -0.29,0.2 -0.5,0.5 -0.6,0.83z"/>
   <path class="fil0" d="M183.54 33.85c7.85,0 13.57,1.61 17.18,4.82 3.6,3.22 5.41,7.72 5.41,13.52 0,2.63 -0.42,5.14 -1.25,7.53 -0.8,2.35 -2.13,4.45 -3.99,6.28 -1.86,1.8 -4.31,3.23 -7.36,4.28 -3.02,1.05 -6.75,1.58 -11.19,1.58l-6.49 0 0 22.79 -9.98 0 0 -60.8 17.67 0zm-0.67 8.28l-7.03 0 0 21.42 5.45 0c3.13,0 5.8,-0.36 7.98,-1.08 2.19,-0.75 3.85,-1.93 4.99,-3.54 1.14,-1.61 1.71,-3.73 1.71,-6.36 0,-3.52 -1.07,-6.14 -3.2,-7.86 -2.11,-1.72 -5.41,-2.58 -9.9,-2.58zm52.44 5.61c5.82,0 10.22,1.29 13.18,3.87 3,2.58 4.49,6.6 4.49,12.06l0 30.98 -6.94 0 -1.87 -6.53 -0.33 0c-1.3,1.67 -2.65,3.04 -4.03,4.12 -1.39,1.08 -3,1.89 -4.83,2.41 -1.8,0.55 -4,0.83 -6.61,0.83 -2.74,0 -5.2,-0.5 -7.36,-1.5 -2.16,-1.02 -3.87,-2.57 -5.11,-4.65 -1.25,-2.08 -1.87,-4.72 -1.87,-7.9 0,-4.74 1.76,-8.31 5.28,-10.69 3.55,-2.39 8.9,-3.7 16.05,-3.95l7.98 -0.29 0 -2.41c0,-3.19 -0.75,-5.46 -2.24,-6.82 -1.47,-1.36 -3.55,-2.04 -6.24,-2.04 -2.3,0 -4.54,0.33 -6.7,1 -2.16,0.67 -4.27,1.48 -6.32,2.45l-3.16 -6.91c2.24,-1.19 4.8,-2.16 7.65,-2.91 2.89,-0.75 5.88,-1.12 8.98,-1.12zm7.98 24.91l-5.95 0.21c-4.88,0.17 -8.3,1 -10.27,2.49 -1.97,1.5 -2.95,3.55 -2.95,6.16 0,2.27 0.68,3.94 2.04,4.99 1.36,1.03 3.15,1.54 5.37,1.54 3.38,0 6.18,-0.96 8.4,-2.87 2.25,-1.94 3.37,-4.78 3.37,-8.52l0 -3.99zm16.43 -24.04l10.65 0 9.44 26.28c0.41,1.19 0.79,2.37 1.12,3.54 0.36,1.14 0.67,2.26 0.91,3.37 0.28,1.11 0.5,2.22 0.67,3.33l0.25 0c0.28,-1.44 0.66,-3.05 1.16,-4.83 0.53,-1.8 1.11,-3.6 1.75,-5.41l9.07 -26.28 10.52 0 -19.75 52.36c-1.14,3 -2.54,5.54 -4.2,7.65 -1.64,2.14 -3.57,3.74 -5.82,4.83 -2.24,1.11 -4.81,1.66 -7.69,1.66 -1.39,0 -2.59,-0.08 -3.62,-0.25 -1.02,-0.14 -1.9,-0.29 -2.62,-0.46l0 -7.82c0.58,0.14 1.31,0.26 2.2,0.37 0.89,0.11 1.8,0.17 2.74,0.17 1.74,0 3.26,-0.35 4.53,-1.04 1.28,-0.69 2.35,-1.68 3.24,-2.95 0.89,-1.25 1.62,-2.67 2.2,-4.28l1.62 -4.32 -18.38 -45.91zm83.46 32.9c0,3.02 -0.74,5.57 -2.2,7.65 -1.47,2.08 -3.62,3.66 -6.44,4.74 -2.8,1.06 -6.24,1.58 -10.31,1.58 -3.21,0 -5.99,-0.24 -8.31,-0.71 -2.3,-0.44 -4.48,-1.14 -6.53,-2.08l0 -8.44c2.19,1.02 4.65,1.91 7.36,2.66 2.74,0.75 5.33,1.12 7.78,1.12 3.22,0 5.53,-0.5 6.94,-1.5 1.41,-1.03 2.12,-2.39 2.12,-4.07 0,-1 -0.29,-1.89 -0.87,-2.66 -0.56,-0.81 -1.61,-1.62 -3.16,-2.46 -1.52,-0.86 -3.77,-1.88 -6.74,-3.07 -2.91,-1.17 -5.36,-2.33 -7.36,-3.5 -1.99,-1.16 -3.5,-2.56 -4.53,-4.2 -1.03,-1.67 -1.54,-3.78 -1.54,-6.36 0,-4.07 1.61,-7.17 4.83,-9.28 3.24,-2.13 7.53,-3.2 12.85,-3.2 2.83,0 5.49,0.29 7.99,0.87 2.52,0.56 4.99,1.37 7.4,2.46l-3.08 7.36c-2.08,-0.91 -4.17,-1.66 -6.28,-2.24 -2.08,-0.61 -4.2,-0.91 -6.37,-0.91 -2.52,0 -4.45,0.39 -5.78,1.16 -1.3,0.78 -1.95,1.89 -1.95,3.33 0,1.08 0.31,2 0.96,2.75 0.63,0.75 1.73,1.5 3.28,2.24 1.58,0.75 3.77,1.68 6.57,2.79 2.74,1.05 5.11,2.16 7.11,3.33 2.02,1.13 3.58,2.54 4.66,4.2 1.08,1.67 1.62,3.81 1.62,6.45zm34.56 -33.77c5.19,0 9.22,1.34 12.1,4.03 2.91,2.66 4.37,6.94 4.37,12.85l0 30.03 -9.77 0 0 -28.2c0,-3.57 -0.73,-6.25 -2.2,-8.03 -1.47,-1.8 -3.74,-2.7 -6.82,-2.7 -4.46,0 -7.57,1.37 -9.31,4.12 -1.72,2.74 -2.58,6.72 -2.58,11.93l0 22.87 -9.77 0 0 -46.04 7.61 0 1.37 6.24 0.54 0c1,-1.61 2.23,-2.93 3.7,-3.95 1.5,-1.05 3.16,-1.84 4.99,-2.37 1.85,-0.52 3.78,-0.79 5.78,-0.79zm70.28 0.87l0 46.04 -7.69 0 -1.33 -6.2 -0.54 0c-0.97,1.58 -2.2,2.89 -3.7,3.95 -1.5,1.03 -3.16,1.79 -4.99,2.29 -1.83,0.53 -3.76,0.79 -5.78,0.79 -3.46,0 -6.43,-0.58 -8.9,-1.75 -2.44,-1.19 -4.31,-3.02 -5.61,-5.49 -1.3,-2.47 -1.96,-5.66 -1.96,-9.57l0 -30.07 9.81 0 0 28.24c0,3.57 0.72,6.25 2.16,8.02 1.47,1.78 3.74,2.66 6.82,2.66 2.97,0 5.32,-0.61 7.07,-1.83 1.75,-1.22 2.98,-3.02 3.7,-5.41 0.75,-2.38 1.13,-5.31 1.13,-8.77l0 -22.92 9.81 0zm27.16 66.5c-6.24,0 -11.02,-1.12 -14.35,-3.37 -3.33,-2.25 -4.99,-5.39 -4.99,-9.44 0,-2.83 0.89,-5.22 2.66,-7.19 1.78,-1.94 4.31,-3.29 7.61,-4.04 -1.25,-0.56 -2.33,-1.41 -3.24,-2.58 -0.89,-1.19 -1.33,-2.51 -1.33,-3.95 0,-1.72 0.48,-3.19 1.46,-4.41 0.97,-1.22 2.43,-2.4 4.37,-3.54 -2.41,-1.02 -4.35,-2.69 -5.82,-4.99 -1.44,-2.33 -2.17,-5.06 -2.17,-8.19 0,-3.33 0.71,-6.15 2.12,-8.48 1.42,-2.35 3.48,-4.15 6.2,-5.37 2.72,-1.24 6,-1.87 9.86,-1.87 0.83,0 1.73,0.06 2.7,0.17 1,0.08 1.91,0.19 2.74,0.33 0.86,0.11 1.51,0.24 1.96,0.37l15.93 0 0 5.45 -7.82 1.45c0.75,1.06 1.35,2.26 1.79,3.62 0.44,1.33 0.67,2.79 0.67,4.37 0,4.77 -1.65,8.53 -4.94,11.27 -3.28,2.72 -7.79,4.07 -13.56,4.07 -1.39,-0.06 -2.73,-0.17 -4.03,-0.33 -1,0.61 -1.76,1.29 -2.29,2.04 -0.53,0.72 -0.79,1.54 -0.79,2.45 0,0.75 0.26,1.36 0.79,1.83 0.52,0.44 1.3,0.78 2.33,1 1.06,0.22 2.33,0.33 3.83,0.33l7.94 0c5.05,0 8.9,1.07 11.56,3.2 2.67,2.13 4,5.26 4,9.4 0,5.24 -2.17,9.27 -6.49,12.1 -4.32,2.86 -10.55,4.28 -18.67,4.28zm0.37 -6.86c3.41,0 6.28,-0.33 8.61,-1 2.33,-0.67 4.09,-1.62 5.28,-2.87 1.19,-1.22 1.79,-2.67 1.79,-4.37 0,-1.5 -0.37,-2.65 -1.12,-3.45 -0.75,-0.8 -1.87,-1.36 -3.37,-1.66 -1.5,-0.31 -3.35,-0.46 -5.57,-0.46l-7.23 0c-1.8,0 -3.4,0.28 -4.78,0.83 -1.39,0.58 -2.47,1.41 -3.24,2.5 -0.75,1.08 -1.12,2.38 -1.12,3.91 0,2.11 0.93,3.73 2.78,4.87 1.89,1.13 4.55,1.7 7.98,1.7zm1.91 -35.85c2.86,0 4.98,-0.78 6.36,-2.33 1.39,-1.58 2.08,-3.8 2.08,-6.65 0,-3.11 -0.72,-5.43 -2.17,-6.99 -1.41,-1.55 -3.52,-2.33 -6.32,-2.33 -2.74,0 -4.83,0.79 -6.28,2.37 -1.41,1.58 -2.12,3.92 -2.12,7.03 0,2.8 0.71,4.99 2.12,6.57 1.44,1.55 3.55,2.33 6.32,2.33z"/>
  </g>
 </g>
</svg>
